<svg width="25" height="17" viewBox="0 0 25 17" fill="none" xmlns="http://www.w3.org/2000/svg">
<path d="M24.7939 0.0957031H0.793945V16.0959H24.7939V0.0957031Z" fill="#6DA544"/>
<path d="M12.7939 3.67432L18.7939 8.09538L12.7939 12.5164L6.79395 8.09538L12.7939 3.67432Z" fill="#FFDA44"/>
<path d="M12.7939 10.6217C14.1891 10.6217 15.3202 9.4906 15.3202 8.09537C15.3202 6.70015 14.1891 5.56909 12.7939 5.56909C11.3987 5.56909 10.2676 6.70015 10.2676 8.09537C10.2676 9.4906 11.3987 10.6217 12.7939 10.6217Z" fill="#F0F0F0"/>
<path d="M11.5308 7.9375C11.0915 7.9375 10.6675 8.00434 10.2684 8.12828C10.2861 9.50828 11.4097 10.6217 12.7939 10.6217C13.6498 10.6217 14.4058 10.1957 14.8627 9.54447C14.081 8.56576 12.878 7.9375 11.5308 7.9375Z" fill="#0052B4"/>
<path d="M15.2734 8.57945C15.3039 8.4227 15.3202 8.26098 15.3202 8.09537C15.3202 6.70015 14.1891 5.56909 12.7939 5.56909C11.7528 5.56909 10.8592 6.199 10.4724 7.0983C10.8143 7.02751 11.1683 6.99015 11.5308 6.99015C12.9982 6.9902 14.3256 7.60009 15.2734 8.57945Z" fill="#0052B4"/>
</svg>
