<?xml version="1.0" encoding="UTF-8"?>
<svg id="Layer_1" xmlns="http://www.w3.org/2000/svg" xmlns:xlink="http://www.w3.org/1999/xlink" xmlns:serif="http://www.serif.com/" version="1.1" viewBox="0 0 1920 1080">
  <!-- Generator: Adobe Illustrator 29.3.1, SVG Export Plug-In . SVG Version: 2.1.0 Build 151)  -->
  <defs>
    <style>
      .st0 {
        fill: #61bb46;
      }

      .st1 {
        fill: #fff200;
      }
    </style>
  </defs>
  <path class="st1" d="M290.4,530.9l-12-4.4c-15.8-6-45.9-15.5-86.2-15.8s-58.3,5.6-79,22.3c-34.2,27.6-44.2,92.8-44.2,92.8,0,0-10.9,55.4,19.5,89.6,11.9,13.4,31.2,21,50.5,23.8,39.7,5.7,72.7,2.2,109.2-11.7l14.2-66.8h-53.1c-2.1,10.1-4.6,25.2-8.8,34.1-8.2,17.1-17.4,25-28.7,23.7s-18.9-6.6-23.1-25.4-2.1-34.3,7.6-74.2c5.9-24.2,29-75.4,50-74.9,28.6.7,20.8,30.3,17.5,48.9h53.1l13.3-62Z"/>
  <path class="st1" d="M271.8,700.7h105.3l3.2-13.6h-7l-2.8-.3-2.5-.6c-.6,0-.9-.3-1.3-.3-3.2-1.6-4.4-3.2-4.4-5.4l.3-3.2.6-3.2,27.2-126.8h-86l-2.8,13.6h7.6l2.5.3,2.5.3,2.5,1c1.6.9,2.5,1.9,2.8,3.8l.3,1.3v2.5l-.3,2.8-20.2,96.4-1.9,7.6c-1.6,5.4-4.1,8.2-8.8,9.2l-1.9.3-3.2.3-8.9.3-2.8,13.6ZM334.8,503.5c0,14.9,13.9,27.8,32.6,27.5,18.3-.3,31.6-13.3,31.3-28.1-.3-14.9-14.2-28.1-32.6-27.5-2.5,0-4.4.3-6.6.6-15.2,3.2-25,15.2-24.7,27.5Z"/>
  <path class="st1" d="M377.1,701.1h105l2.8-13.9h-9.2l-2.8-.3c-.6-.3-.9-.3-1.3-.6-3.2-1.3-4.4-2.8-4.7-5.7l.3-3.5.6-3.5,21.2-96.1,1.9-1.6,2.2-1.9c1-.6,2.2-1.3,3.2-1.9,3.5-1.9,6.6-2.8,9.5-3.2,2.2,0,4.4.3,6,.9l1.6,1.3c1.6,1.6,2.2,3.5,1.9,6.6l-.3,3.5-.6,4.4-24.3,115.4h85l3.2-13.9h-9.2l-3.2-.3c-.3-.3-.6-.3-1-.6-3.2-1.3-4.4-2.8-4.4-5.7v-3.5l.6-3.5,18.3-85,.9-6.3.6-6.3c.3-2.2.3-4.4.3-6.3-.3-16.4-14.5-28.5-40.8-27.2-7.3.3-14.9,1.6-22.8,3.8-4.1,1.3-7.6,2.5-11.1,4.4l-7,3.5-6.6,4.1,2.2-10.4h-85.4l-3.2,13.6,9.5.3,3.2.3c.6,0,.9.3,1.6.3,2.8,1.6,4.1,3.2,4.1,6l-.3,3.5-.6,3.8-19.9,94.5-1,4.1-.9,3.5c-1.6,5.1-4.4,8.2-9.2,9.2l-3.2.3h-9.8l-3.2,13.9Z"/>
  <path class="st1" d="M748.6,623.7l2.1-11.1c1.1-7.3,2.9-17,2.8-24.5.6-28.2-16.2-43.2-47.8-47.5s-9.3-.5-12.2-.4c-4.4.2-6.8.5-8.6.7-39.7,4.1-72,23.9-85.8,72.6-11.6,47.6-7.1,89.6,56.2,90.2s15.1-.2,19.9-.7c16.8-1.8,30.3-5.7,37.9-8.5,6.1-2,14-4.8,16.5-5.7l9.8-47.1h-38.3l-1.8,7.8-1.5,7.8c-2.4,10.5-5.8,16.7-9.5,20.5s-11,7.8-17.2,7.8c-19.1-.6-16.5-26.1-12.9-42.8.9-4.5,2.7-14.5,3.7-19h86.7ZM690.1,559.7c6.4.4,10.1,2.8,10.7,11.5.2,5.6-.8,13.7-1.2,20.8l-.7,5.3c-.3,1.8-.8,4.8-.9,5-.5,3.4-.9,3.7-.9,3.7h-31.6c.6-2.4,3.7-14.4,4.3-17.1s1.2-5.3,2.1-7.4c5-16.9,8.7-19.7,15-21.4s1.9-.2,3.1-.3"/>
  <path class="st0" d="M767.3,732.8h77.4l12.4-18.6,7.1,5.8,7.5,6.2c13.3,9.3,30.1,14.2,49.1,14.2,59.3-.4,99.6-38.1,115.1-120.8,2.2-11.5,3.5-23,4-34.5,2.2-51.3-24.3-77.5-74.4-74.4-20.8,1.3-33.6,4.4-56.2,15.5-2.7,1.3-5.3,2.7-7.5,4l23-109.8h-118.6l-4,19.5,12.4.4,4,.4c.9,0,1.3,0,2.2.4,4.4,1.8,6.2,4.4,6.2,8.4l-.4,4.4-.9,5.3-58.4,273.5ZM868.6,686.8l27-126.6,4.4-3.5,4.4-4c1.8-.9,3.1-2.2,4.9-3.1,6.2-2.7,12-4.4,17.3-4.4h4.4c10.6,1.8,15,5.8,18.1,15.9.9,2.7,1.3,7.1,1.3,12.4-.4,4.4-.9,8-1.3,12.4l-5.3,31.4c-1.8,9.7-4.4,22.1-9.3,42.9-8,31.4-21.7,43.8-40.3,42.9-2.7,0-5.3-.4-8-1.3-4-1.8-8.4-4-11.5-6.6l-3.1-4-3.1-4.4Z"/>
  <path class="st0" d="M1031.3,701.2h105.3l2.8-13.9h-8.8l-2.8-.3c-.3-.3-.9-.3-1.3-.6-2.8-1.3-4.1-3.2-4.1-5.7v-3.5l.6-3.5,14.2-66.4c.3-1,.6-2.2,1-3.8,2.2-7.9,4.4-12,6.9-14.5,3.2-3.5,7-5.4,10.4-5.7l2.8-.3c.9,0,1.9.3,2.5.6l1.9,1,1.3,1.6c.6,1.6.9,3.2.9,5.1v.9l-.3,3.2-1.3,6h34.8l12.6-57.9-2.8-.6-2.8-.3c-1-.3-1.9-.3-3.2-.3-12-.3-25.9,3.5-37.6,10.4-6.3,3.8-11.4,8.2-19.6,16.8-.9,1.3-1.9,2.5-2.8,3.8l5.4-25.3h-83.1l-3.2,13.6,10.1.3,3.2.3c.3,0,.9.3,1.3.3,2.8,1.6,4.1,3.2,4.1,6v3.5l-.9,3.8-19.9,94.5-.6,4.1-1.3,3.5c-1.6,5.1-4.4,8.2-9.2,9.2l-3.2.3h-10.1l-3.2,13.9Z"/>
  <path class="st0" d="M1262.4,606.1l-14.5,2.5c-39.8,7.6-53.7,19.9-60.1,51.5-.9,5.1-1.6,9.5-1.6,13.9-.3,19.3,11.7,31.3,34.1,32.2,8.5.3,19.9-1.6,35.1-7.9,2.8-.9,5.7-1.9,7.9-3.2l5.7-2.8,5.1-2.8-2.5,11.4h84.7l3.2-13.9h-9.2l-3.2-.3c-.3-.3-.9-.3-1.3-.6-2.8-1.3-4.1-3.2-4.1-5.7v-3.5l.6-3.5,17.4-80.3.9-7,.9-7.3c2.2-23.4-11.7-35.1-56-36.7-5.1-.3-9.8-.3-14.2,0-7,0-13.6.6-20.2,1.6-13.6,1.6-25.6,3.8-35.1,7l-6,1.9-5.7,1.9-9.2,43.6h37.9l.9-6.6,2.5-9.8c3.8-13.6,10.4-20.5,22.1-22.4,2.2-.6,4.1-.6,6-.6s4.7.6,6.6,1.6c4.1,1.9,6.3,4.7,7,8.8,0,.6.3,1.3.3,1.9,0,1.6,0,2.8-.3,4.1v.6l-6,25.6-30,4.7ZM1278.6,667.1l-4.4,3.5-5.1,3.2c-2.8,1.6-5.7,2.5-8.2,2.5s-1,0-1.3-.3c-4.1-.6-5.7-1.9-7-6.3-.6-1.9-1.3-5.4-.9-8.9.3-3.5.9-7,1.9-10.4,5.1-21.5,11.1-26.6,31.6-30.4,1.3-.3,2.5-.6,3.8-.9l-10.4,48Z"/>
  <path class="st0" d="M1370.5,692.6l4.4,2.2,4.7,2.2c14.5,6,31.6,9.2,53.4,9.5,23.1.3,39.5-3.8,52.5-11.4,23.4-14.2,35.1-35.4,34.8-56.9-.3-19.9-9.5-29.1-41.7-39.5-2.5-.6-5.4-1.6-8.2-2.5l-7.6-2.2c-9.5-2.8-13-6.3-13.3-11.7-.3-4.1.6-7.9,2.8-12,3.2-6.6,7.6-9.8,13.9-11.4,1.3-.3,2.8-.6,4.1-.6,7-.3,11.7,2.5,14.2,7.9,1,2.2,1.3,4.7,1.3,8.2-.3,2.5-.3,4.7-.6,6.9l-2.5,10.4h37.9l8.5-39.5-4.1-1.9-3.8-1.6c-9.5-3.2-25-5.7-41.4-6.3-4.4-.3-8.9-.3-13,0-43.6,1.3-68.6,20.2-76.2,52.8-.9,3.5-1.6,6.6-1.9,10.1-.3,4.4.3,8.5,1.3,12.6,3.8,13,11.4,20.2,26.9,25.6l7.9,2.5,15.2,4.7c1.3.3,2.5.9,3.8,1.3,9.2,3.8,12.3,7.6,12.6,13.6.3,4.1-1.3,9.5-4.7,14.5-3.2,4.4-7.9,7.6-14.2,8.9-2.5.6-4.7.6-7,.6-10.7-.3-16.8-6.3-17.4-14.9,0-1.3,0-2.5.3-4.1v-2.8l1-3.8,2.2-11.4h-37.6l-8.5,39.8Z"/>
  <path class="st0" d="M1514.1,701.2h105.3l3.2-13.6h-6.9l-2.8-.3-2.5-.6c-.6,0-.9-.3-1.3-.3-3.2-1.6-4.4-3.2-4.4-5.4l.3-3.2.6-3.2,27.2-126.8h-86l-2.8,13.6h7.6l2.5.3,2.5.3,2.5,1c1.6.9,2.5,1.9,2.8,3.8l.3,1.3v2.5l-.3,2.8-20.2,96.4-1.9,7.6c-1.6,5.4-4.1,8.2-8.8,9.2l-1.9.3-3.2.3-8.9.3-2.8,13.6ZM1577,503.9c0,14.9,13.9,27.8,32.6,27.5,18.3-.3,31.6-13.3,31.3-28.1-.3-14.9-14.2-28.1-32.6-27.5-2.5,0-4.4.3-6.6.6-15.2,3.2-25,15.2-24.7,27.5Z"/>
  <path class="st0" d="M1617.9,701.2h106.2l3.2-13.9h-9.8l-2.8-.3c-.3-.3-.9-.3-1.3-.6-3.2-1.3-4.4-3.2-4.4-5.7v-3.5l.6-3.5,42-195.7h-86l-2.8,13.9,9.8.3,3.2.3c.6,0,.9,0,1.3.3,2.8,1.3,4.1,3.2,4.1,6v3.2l-.6,3.8-35.1,164.4-.6,4.1-.9,3.5c-1.6,5.1-4.7,8.2-9.2,9.2l-3.2.3h-10.4l-3.2,13.9Z"/>
</svg>