<svg width="36" height="35" viewBox="0 0 36 35" fill="none" xmlns="http://www.w3.org/2000/svg">
<g id="Facbook">
<path id="Background" d="M34.823 17.2339C34.823 13.9339 33.8443 10.7081 32.0107 7.9643C30.1771 5.22045 27.5709 3.08167 24.5217 1.81882C21.4725 0.555966 18.1172 0.22567 14.8802 0.869466C11.6432 1.51326 8.66983 3.1022 6.33608 5.43565C4.00233 7.76909 2.41301 10.7422 1.76913 13.9788C1.12525 17.2154 1.45572 20.5702 2.71874 23.619C3.98176 26.6677 6.1206 29.2734 8.8648 31.1068C11.609 32.9402 14.8353 33.9188 18.1357 33.9188C22.5615 33.9188 26.8059 32.1612 29.9354 29.0322C33.0649 25.9031 34.823 21.6591 34.823 17.2339Z" stroke="white" stroke-miterlimit="10"/>
<path id="Icon" d="M19.4506 13.9746V12.5639C19.4363 12.4551 19.4462 12.3444 19.4794 12.2398C19.5127 12.1353 19.5685 12.0396 19.643 11.959C19.7174 11.8784 19.8087 11.8151 19.9103 11.7737C20.0119 11.7324 20.1214 11.7138 20.231 11.7195H22.2086V8.69448H19.4827C18.9858 8.65452 18.4862 8.72243 18.0182 8.89385C17.5501 9.06527 17.1248 9.33628 16.7713 9.68767C16.4178 10.0391 16.1446 10.4628 15.9705 10.9298C15.7964 11.3968 15.7254 11.8957 15.7625 12.3927V13.9856H14.02V17.4913H15.7839V26.3199H19.3116V17.4913H21.9307L22.2514 13.9532L19.4506 13.9746Z" fill="white"/>
</g>
</svg>
