<svg width="41" height="41" viewBox="0 0 41 41" fill="none" xmlns="http://www.w3.org/2000/svg">
<g id="fi-rr-menu-burger" clip-path="url(#clip0_2050_7)">
<path id="Vector" d="M38.7818 18.6521H2.11515C1.19468 18.6521 0.448486 19.3983 0.448486 20.3188C0.448486 21.2392 1.19468 21.9854 2.11515 21.9854H38.7818C39.7023 21.9854 40.4485 21.2392 40.4485 20.3188C40.4485 19.3983 39.7023 18.6521 38.7818 18.6521Z" fill="white"/>
<path id="Vector_2" d="M38.7818 6.9856H2.11515C1.19468 6.9856 0.448486 7.73179 0.448486 8.65226C0.448486 9.57274 1.19468 10.3189 2.11515 10.3189H38.7818C39.7023 10.3189 40.4485 9.57274 40.4485 8.65226C40.4485 7.73179 39.7023 6.9856 38.7818 6.9856Z" fill="white"/>
<path id="Vector_3" d="M38.7818 30.3188H2.11515C1.19468 30.3188 0.448486 31.065 0.448486 31.9855C0.448486 32.906 1.19468 33.6522 2.11515 33.6522H38.7818C39.7023 33.6522 40.4485 32.906 40.4485 31.9855C40.4485 31.065 39.7023 30.3188 38.7818 30.3188Z" fill="white"/>
</g>
<defs>
<clipPath id="clip0_2050_7">
<rect width="40" height="40" fill="white" transform="translate(0.448486 0.318848)"/>
</clipPath>
</defs>
</svg>
