<svg width="26" height="18" viewBox="0 0 26 18" fill="none" xmlns="http://www.w3.org/2000/svg">
<g clip-path="url(#clip0_2085_266)">
<path d="M24.897 0.797852H0.896973V16.798H24.897V0.797852Z" fill="#F0F0F0"/>
<path d="M24.897 2.79761H0.896973V4.79744H24.897V2.79761Z" fill="#D80027"/>
<path d="M24.897 6.79785H0.896973V8.79768H24.897V6.79785Z" fill="#D80027"/>
<path d="M24.897 10.7974H0.896973V12.7972H24.897V10.7974Z" fill="#D80027"/>
<path d="M24.897 14.7976H0.896973V16.7974H24.897V14.7976Z" fill="#D80027"/>
<path d="M12.897 0.797852H0.896973V9.41334H12.897V0.797852Z" fill="#2E52B2"/>
<path d="M5.57614 4.32715L5.38288 4.92171H4.75775L5.26358 5.28898L5.07031 5.88349L5.57614 5.51623L6.08164 5.88349L5.88842 5.28898L6.39425 4.92171H5.76908L5.57614 4.32715Z" fill="#F0F0F0"/>
<path d="M5.76908 7.06717L5.57614 6.47266L5.38288 7.06717H4.75775L5.26358 7.43448L5.07031 8.029L5.57614 7.66169L6.08164 8.029L5.88842 7.43448L6.39425 7.06717H5.76908Z" fill="#F0F0F0"/>
<path d="M3.12716 7.06717L2.93417 6.47266L2.74091 7.06717H2.11578L2.62161 7.43448L2.42835 8.029L2.93417 7.66169L3.43972 8.029L3.2465 7.43448L3.75224 7.06717H3.12716Z" fill="#F0F0F0"/>
<path d="M2.93417 4.32715L2.74091 4.92171H2.11578L2.62161 5.28898L2.42835 5.88349L2.93417 5.51623L3.43972 5.88349L3.2465 5.28898L3.75224 4.92171H3.12716L2.93417 4.32715Z" fill="#F0F0F0"/>
<path d="M5.57614 2.1814L5.38288 2.77601H4.75775L5.26358 3.14332L5.07031 3.73783L5.57614 3.37052L6.08164 3.73783L5.88842 3.14332L6.39425 2.77601H5.76908L5.57614 2.1814Z" fill="#F0F0F0"/>
<path d="M2.93417 2.1814L2.74091 2.77601H2.11578L2.62161 3.14332L2.42835 3.73783L2.93417 3.37052L3.43972 3.73783L3.2465 3.14332L3.75224 2.77601H3.12716L2.93417 2.1814Z" fill="#F0F0F0"/>
<path d="M8.21806 4.32715L8.02484 4.92171H7.39972L7.9055 5.28898L7.71233 5.88349L8.21806 5.51623L8.72366 5.88349L8.53039 5.28898L9.03622 4.92171H8.41109L8.21806 4.32715Z" fill="#F0F0F0"/>
<path d="M8.41109 7.06717L8.21806 6.47266L8.02484 7.06717H7.39972L7.9055 7.43448L7.71233 8.029L8.21806 7.66169L8.72366 8.029L8.53039 7.43448L9.03622 7.06717H8.41109Z" fill="#F0F0F0"/>
<path d="M11.0531 7.06717L10.8601 6.47266L10.6668 7.06717H10.0417L10.5475 7.43448L10.3543 8.029L10.8601 7.66169L11.3656 8.029L11.1724 7.43448L11.6782 7.06717H11.0531Z" fill="#F0F0F0"/>
<path d="M10.8601 4.32715L10.6668 4.92171H10.0417L10.5475 5.28898L10.3543 5.88349L10.8601 5.51623L11.3656 5.88349L11.1724 5.28898L11.6782 4.92171H11.0531L10.8601 4.32715Z" fill="#F0F0F0"/>
<path d="M8.21806 2.1814L8.02484 2.77601H7.39972L7.9055 3.14332L7.71233 3.73783L8.21806 3.37052L8.72366 3.73783L8.53039 3.14332L9.03622 2.77601H8.41109L8.21806 2.1814Z" fill="#F0F0F0"/>
<path d="M10.8601 2.1814L10.6668 2.77601H10.0417L10.5475 3.14332L10.3543 3.73783L10.8601 3.37052L11.3656 3.73783L11.1724 3.14332L11.6782 2.77601H11.0531L10.8601 2.1814Z" fill="#F0F0F0"/>
</g>
<defs>
<clipPath id="clip0_2085_266">
<rect width="25" height="17" fill="white" transform="translate(0.448486 0.648926)"/>
</clipPath>
</defs>
</svg>
