<svg width="26" height="18" viewBox="0 0 26 18" fill="none" xmlns="http://www.w3.org/2000/svg">
<g clip-path="url(#clip0_2085_244)">
<path d="M24.897 0.797852H0.896973V16.798H24.897V0.797852Z" fill="#6DA544"/>
<path d="M12.897 4.37646L18.897 8.79753L12.897 13.2186L6.89697 8.79753L12.897 4.37646Z" fill="#FFDA44"/>
<path d="M12.8969 11.3238C14.2922 11.3238 15.4232 10.1927 15.4232 8.79752C15.4232 7.40229 14.2922 6.27124 12.8969 6.27124C11.5017 6.27124 10.3707 7.40229 10.3707 8.79752C10.3707 10.1927 11.5017 11.3238 12.8969 11.3238Z" fill="#F0F0F0"/>
<path d="M11.6338 8.63965C11.1945 8.63965 10.7706 8.70649 10.3715 8.83043C10.3891 10.2104 11.5128 11.3239 12.8969 11.3239C13.7528 11.3239 14.5088 10.8978 14.9657 10.2466C14.184 9.26791 12.981 8.63965 11.6338 8.63965Z" fill="#0052B4"/>
<path d="M15.3765 9.2816C15.4069 9.12485 15.4233 8.96318 15.4233 8.79757C15.4233 7.40233 14.2923 6.27124 12.897 6.27124C11.8559 6.27124 10.9623 6.90115 10.5754 7.80044C10.9173 7.72966 11.2713 7.6923 11.6338 7.6923C13.1012 7.69235 14.4286 8.30224 15.3765 9.2816Z" fill="#0052B4"/>
</g>
<defs>
<clipPath id="clip0_2085_244">
<rect width="25" height="17" fill="white" transform="translate(0.448486 0.648926)"/>
</clipPath>
</defs>
</svg>
