<svg width="35" height="35" viewBox="0 0 35 35" fill="none" xmlns="http://www.w3.org/2000/svg">
<g id="Instagram">
<path id="Background" d="M17.5316 0.523926C14.2261 0.523928 10.9948 1.50421 8.24659 3.34128C5.49841 5.17836 3.35684 7.7897 2.09283 10.8443C0.828827 13.8989 0.499181 17.2597 1.14562 20.5017C1.79206 23.7438 3.38553 26.7211 5.72441 29.0572C8.0633 31.3933 11.0425 32.9831 14.2851 33.6254C17.5276 34.2677 20.8878 33.9339 23.9406 32.6659C26.9933 31.3979 29.6014 29.2526 31.4348 26.5019C33.2682 23.7511 34.2445 20.5183 34.2403 17.2125C34.2346 12.7844 32.4717 8.53971 29.3389 5.41058C26.206 2.28146 21.9593 0.523922 17.5316 0.523926Z" stroke="white" stroke-miterlimit="10"/>
<g id="Icon">
<path id="Vector" d="M17.5316 23.0082C18.6734 23.0082 19.7894 22.6695 20.7388 22.0351C21.6881 21.4008 22.428 20.4992 22.8649 19.4443C23.3018 18.3894 23.4161 17.2285 23.1934 16.1086C22.9706 14.9887 22.4208 13.9603 21.6135 13.1529C20.8062 12.3455 19.7776 11.7955 18.6578 11.5728C17.538 11.35 16.3773 11.4647 15.3225 11.9016C14.2677 12.3386 13.3661 13.0784 12.7318 14.0278C12.0975 14.9772 11.759 16.0933 11.759 17.2351C11.759 18.7663 12.3672 20.2347 13.4498 21.3174C14.5323 22.4 16.0006 23.0082 17.5316 23.0082ZM13.1594 17.2351C13.1594 16.3703 13.4158 15.5247 13.8962 14.8056C14.3767 14.0866 15.0595 13.5262 15.8584 13.1952C16.6574 12.8642 17.5365 12.778 18.3846 12.9467C19.2328 13.1154 20.0118 13.5317 20.6233 14.1432C21.2348 14.7547 21.6512 15.5339 21.8199 16.3822C21.9886 17.2304 21.902 18.1092 21.5711 18.9082C21.2402 19.7072 20.6797 20.3906 19.9607 20.871C19.2417 21.3515 18.3964 21.6076 17.5316 21.6076C16.9557 21.6076 16.3854 21.4941 15.8535 21.273C15.3216 21.0519 14.8387 20.7276 14.4324 20.3192C14.0261 19.9109 13.7045 19.4266 13.4861 18.8936C13.2676 18.3606 13.1566 17.7898 13.1594 17.2137V17.2351Z" fill="white"/>
<path id="Vector_2" d="M23.2936 26.8344H11.7697C11.2549 26.8344 10.7453 26.7326 10.2699 26.5353C9.7945 26.338 9.36271 26.0489 8.99926 25.6844C8.6358 25.3199 8.34782 24.8877 8.15182 24.4117C7.95583 23.9357 7.85566 23.4257 7.85707 22.9109V11.5679C7.85707 10.5301 8.26929 9.53444 9.00304 8.80063C9.73679 8.06681 10.732 7.65479 11.7697 7.65479H23.2936C24.3313 7.65479 25.3264 8.06681 26.0602 8.80063C26.7939 9.53444 27.2062 10.5301 27.2062 11.5679V22.9109C27.2076 23.4257 27.1074 23.9357 26.9114 24.4117C26.7154 24.8877 26.4274 25.3199 26.064 25.6844C25.7005 26.0489 25.2687 26.338 24.7933 26.5353C24.3179 26.7326 23.8083 26.8344 23.2936 26.8344ZM11.7697 9.07678C11.1099 9.07959 10.478 9.34263 10.0115 9.80917C9.54499 10.2757 9.28167 10.9081 9.27886 11.5679V22.9109C9.27886 23.5716 9.54127 24.2051 10.0084 24.6722C10.4755 25.1394 11.1091 25.402 11.7697 25.402H23.2936C23.6202 25.402 23.9436 25.3373 24.2452 25.212C24.5468 25.0867 24.8206 24.9031 25.0511 24.6717C25.2815 24.4402 25.464 24.1652 25.588 23.8631C25.712 23.5609 25.7751 23.2375 25.7737 22.9109V11.5679C25.7737 10.9091 25.5127 10.2771 25.0479 9.81022C24.5831 9.34337 23.9523 9.0796 23.2936 9.07678H11.7697Z" fill="white"/>
<path id="Vector_3" d="M23.3578 10.7988C23.1324 10.8232 22.924 10.9302 22.7726 11.0989C22.6212 11.2677 22.5374 11.4861 22.5374 11.7128C22.5374 11.9395 22.6212 12.158 22.7726 12.3267C22.924 12.4955 23.1324 12.6025 23.3578 12.6269C23.4861 12.6408 23.6159 12.6273 23.7388 12.5877C23.8616 12.5481 23.9748 12.4834 24.0708 12.3972C24.1669 12.311 24.2437 12.2055 24.2963 12.0876C24.3489 11.9698 24.3761 11.8419 24.3761 11.7128C24.3761 11.5837 24.3489 11.4559 24.2963 11.338C24.2437 11.2201 24.1669 11.1147 24.0708 11.0285C23.9748 10.9422 23.8616 10.8775 23.7388 10.8379C23.6159 10.7983 23.4861 10.7849 23.3578 10.7988Z" fill="white"/>
</g>
</g>
</svg>
