<svg width="36" height="35" viewBox="0 0 36 35" fill="none" xmlns="http://www.w3.org/2000/svg">
<g id="linkedin">
<path id="Background" d="M34.6148 17.2339C34.6148 13.9339 33.6361 10.7081 31.8025 7.9643C29.9689 5.22045 27.3627 3.08167 24.3135 1.81882C21.2643 0.555966 17.9091 0.22567 14.672 0.869466C11.435 1.51326 8.46164 3.1022 6.12789 5.43565C3.79413 7.76909 2.20482 10.7422 1.56094 13.9788C0.91706 17.2154 1.24753 20.5702 2.51055 23.619C3.77357 26.6677 5.91241 29.2734 8.65661 31.1068C11.4008 32.9402 14.6271 33.9188 17.9276 33.9188C22.3533 33.9188 26.5978 32.1612 29.7272 29.0322C32.8567 25.9031 34.6148 21.6591 34.6148 17.2339Z" stroke="white" stroke-miterlimit="10"/>
<g id="Icon">
<path id="Vector" d="M14.2823 13.4509H10.7973V23.4022H14.2823V13.4509Z" fill="white"/>
<path id="Vector_2" d="M12.5398 8.47974C12.1952 8.47974 11.8583 8.58161 11.5717 8.77305C11.2852 8.96449 11.0618 9.23703 10.93 9.55539C10.7981 9.87375 10.7635 10.2237 10.8308 10.5616C10.898 10.8996 11.064 11.2104 11.3077 11.4541C11.5514 11.6978 11.8619 11.8634 12.1999 11.9306C12.5379 11.9978 12.8882 11.9633 13.2066 11.8314C13.525 11.6996 13.7971 11.4765 13.9886 11.19C14.1801 10.9035 14.2823 10.5665 14.2823 10.2219C14.2823 9.75979 14.0987 9.3169 13.7719 8.99016C13.4451 8.66343 13.0019 8.47974 12.5398 8.47974Z" fill="white"/>
<path id="Vector_3" d="M25.7206 16.5077C25.4961 14.6372 24.5553 13.4509 22.0218 13.4509C20.2152 13.4509 19.4989 13.7395 19.0927 14.5198V13.4509H16.2705V23.4022H19.1675V18.1966C19.1675 16.8926 19.4134 15.9091 21.0276 15.9091C22.6418 15.9091 22.738 17.1279 22.738 18.2822V23.4022H25.7206C25.7206 23.4022 25.7847 16.946 25.7206 16.5077Z" fill="white"/>
</g>
</g>
</svg>
