<svg width="13" height="16" viewBox="0 0 13 16" fill="none" xmlns="http://www.w3.org/2000/svg">
<path fill-rule="evenodd" clip-rule="evenodd" d="M6.7664 14.6855L6.60214 14.8635C6.55313 14.9231 6.49075 14.9712 6.41964 15.0043C6.34854 15.0375 6.2706 15.055 6.19161 15.055C6.11261 15.055 6.03461 15.0375 5.96351 15.0043C5.89241 14.9712 5.83002 14.9231 5.78102 14.8635L4.38511 13.3617C3.34667 12.2112 2.41583 10.9749 1.6035 9.66673C1.2602 9.09313 0.955132 8.49883 0.690034 7.88801C0.249813 6.90456 0.205845 5.79841 0.566807 4.78549C0.856591 3.76704 1.44734 2.85152 2.26725 2.14997C3.08716 1.44843 4.10096 0.991033 5.18568 0.833418C6.63481 0.577989 8.13058 0.864115 9.36827 1.63329C10.606 2.40246 11.4924 3.59723 11.8471 4.97364C11.96 5.39849 12.0012 5.84292 12.073 6.27765C12.0637 6.93363 11.9097 7.58014 11.6213 8.17457C11.1324 9.22263 10.5267 10.2165 9.81482 11.1386M8.8706 6.32686C8.86857 5.82117 8.71088 5.32755 8.41753 4.90803C8.12419 4.48851 7.70828 4.16187 7.22235 3.9697C6.73641 3.77753 6.20224 3.7285 5.68723 3.82835C5.17223 3.9282 4.69948 4.1725 4.32872 4.53077C3.95796 4.88904 3.70583 5.34542 3.60408 5.84154C3.50233 6.33766 3.55556 6.85124 3.75707 7.31826C3.95857 7.78527 4.2993 8.18473 4.73625 8.46548C5.17319 8.74623 5.68675 8.8958 6.21209 8.89581C6.91086 8.89059 7.57915 8.61973 8.07134 8.14225C8.56354 7.66477 8.8398 7.01929 8.83978 6.34664L8.8706 6.32686Z" fill="#FFF200"/>
</svg>
