<svg width="17" height="15" viewBox="0 0 17 15" fill="none" xmlns="http://www.w3.org/2000/svg">
<path fill-rule="evenodd" clip-rule="evenodd" d="M0.216553 4.63137C0.231505 5.30818 0.370519 5.97713 0.627144 6.60741C0.856294 7.20177 1.15593 7.76865 1.52012 8.29688C1.94601 8.91849 2.42674 9.50361 2.95707 10.0457C3.52983 10.6251 4.13641 11.1729 4.77384 11.686C5.50854 12.2918 6.29477 12.837 7.12431 13.3161C7.77318 13.6883 8.46139 13.9929 9.17721 14.225C9.67026 14.3868 10.1793 14.4997 10.6963 14.5613C11.4219 14.6473 12.1581 14.5935 12.862 14.403C13.5455 14.2077 14.1762 13.8704 14.7096 13.415C14.9595 13.1972 15.1895 12.959 15.3972 12.7034C15.5307 12.5354 15.6949 12.3774 15.8386 12.2094C15.9646 12.0794 16.0653 11.9292 16.1362 11.7651C16.1893 11.6308 16.2112 11.4868 16.2006 11.3434C16.19 11.2001 16.147 11.0605 16.0747 10.9348C15.9069 10.6782 15.6912 10.4538 15.4383 10.2729C15.1082 10.0263 14.7656 9.79579 14.4119 9.5816C14.1587 9.42351 13.8918 9.27512 13.6113 9.1368C13.3275 9.00237 13.0221 8.91573 12.708 8.88014C12.5017 8.85152 12.2915 8.86758 12.0926 8.92742C11.8936 8.98726 11.7111 9.08897 11.5584 9.22556C11.3737 9.39353 11.2197 9.58154 11.0452 9.76926C10.8805 9.94007 10.7329 10.1254 10.6039 10.3226C10.4413 10.5529 10.2025 10.7232 9.92647 10.8065C9.68337 10.8609 9.43058 10.8609 9.18748 10.8065C8.86383 10.7208 8.55323 10.5946 8.26368 10.4312C7.75022 10.1461 7.26564 9.81533 6.8164 9.44314C6.3805 9.09775 5.96585 8.72815 5.57448 8.33644C5.21897 7.99105 4.91186 7.60252 4.66095 7.18054C4.52381 6.9466 4.43985 6.68726 4.41462 6.41974C4.40537 6.27089 4.42692 6.12199 4.47802 5.98121C4.52912 5.84044 4.60872 5.71053 4.71226 5.59961C4.71226 5.55021 4.81493 5.49103 4.86625 5.4515C5.10342 5.24117 5.32302 5.01328 5.52311 4.76983C5.64549 4.63893 5.75867 4.50037 5.86184 4.35494C5.96873 4.17516 6.03412 3.97508 6.0536 3.76878C6.07309 3.56249 6.04619 3.35486 5.97473 3.15947C5.86546 2.83074 5.6912 2.52528 5.46152 2.26022C5.19465 1.9243 4.90725 1.60813 4.61985 1.2722C4.4192 1.0445 4.19955 0.832882 3.963 0.639737C3.79115 0.501611 3.59699 0.391398 3.38821 0.313613C3.21859 0.242959 3.03133 0.221564 2.84912 0.25138C2.66692 0.281195 2.49762 0.361344 2.36179 0.481982C2.22836 0.600544 2.1154 0.72862 1.99223 0.847182L1.42772 1.44009C1.09568 1.81643 0.825694 2.23964 0.627144 2.69489C0.445052 3.11425 0.327459 3.55701 0.278135 4.00904C0.288399 4.26592 0.226817 4.44365 0.216553 4.63137Z" fill="#FFF200"/>
</svg>
