<svg width="25" height="17" viewBox="0 0 25 17" fill="none" xmlns="http://www.w3.org/2000/svg">
<path d="M24.7939 0.095459H0.793945V16.0956H24.7939V0.095459Z" fill="#F0F0F0"/>
<path d="M24.7939 2.09529H0.793945V4.09511H24.7939V2.09529Z" fill="#D80027"/>
<path d="M24.7939 6.09546H0.793945V8.09529H24.7939V6.09546Z" fill="#D80027"/>
<path d="M24.7939 10.0951H0.793945V12.0949H24.7939V10.0951Z" fill="#D80027"/>
<path d="M24.7939 14.0953H0.793945V16.0956H24.7939V14.0953Z" fill="#D80027"/>
<path d="M12.7939 0.095459H0.793945V8.71094H12.7939V0.095459Z" fill="#2E52B2"/>
<path d="M5.4731 3.62482L5.27984 4.21938H4.65471L5.16054 4.58665L4.96727 5.18116L5.4731 4.8139L5.9786 5.18116L5.78538 4.58665L6.29121 4.21938H5.66604L5.4731 3.62482Z" fill="#F0F0F0"/>
<path d="M5.66604 6.36494L5.4731 5.77043L5.27984 6.36494H4.65471L5.16054 6.73226L4.96727 7.32677L5.4731 6.95946L5.9786 7.32677L5.78538 6.73226L6.29121 6.36494H5.66604Z" fill="#F0F0F0"/>
<path d="M3.02412 6.36494L2.83113 5.77043L2.63787 6.36494H2.01274L2.51857 6.73226L2.3253 7.32677L2.83113 6.95946L3.33668 7.32677L3.14346 6.73226L3.6492 6.36494H3.02412Z" fill="#F0F0F0"/>
<path d="M2.83113 3.62482L2.63787 4.21938H2.01274L2.51857 4.58665L2.3253 5.18116L2.83113 4.8139L3.33668 5.18116L3.14346 4.58665L3.6492 4.21938H3.02412L2.83113 3.62482Z" fill="#F0F0F0"/>
<path d="M5.4731 1.47916L5.27984 2.07377H4.65471L5.16054 2.44108L4.96727 3.0356L5.4731 2.66829L5.9786 3.0356L5.78538 2.44108L6.29121 2.07377H5.66604L5.4731 1.47916Z" fill="#F0F0F0"/>
<path d="M2.83113 1.47916L2.63787 2.07377H2.01274L2.51857 2.44108L2.3253 3.0356L2.83113 2.66829L3.33668 3.0356L3.14346 2.44108L3.6492 2.07377H3.02412L2.83113 1.47916Z" fill="#F0F0F0"/>
<path d="M8.11502 3.62482L7.9218 4.21938H7.29668L7.80246 4.58665L7.60929 5.18116L8.11502 4.8139L8.62062 5.18116L8.42735 4.58665L8.93318 4.21938H8.30805L8.11502 3.62482Z" fill="#F0F0F0"/>
<path d="M8.30805 6.36494L8.11502 5.77043L7.9218 6.36494H7.29668L7.80246 6.73226L7.60929 7.32677L8.11502 6.95946L8.62062 7.32677L8.42735 6.73226L8.93318 6.36494H8.30805Z" fill="#F0F0F0"/>
<path d="M10.95 6.36494L10.757 5.77043L10.5638 6.36494H9.9387L10.4444 6.73226L10.2512 7.32677L10.757 6.95946L11.2626 7.32677L11.0693 6.73226L11.5751 6.36494H10.95Z" fill="#F0F0F0"/>
<path d="M10.757 3.62482L10.5638 4.21938H9.9387L10.4444 4.58665L10.2512 5.18116L10.757 4.8139L11.2626 5.18116L11.0693 4.58665L11.5751 4.21938H10.95L10.757 3.62482Z" fill="#F0F0F0"/>
<path d="M8.11502 1.47916L7.9218 2.07377H7.29668L7.80246 2.44108L7.60929 3.0356L8.11502 2.66829L8.62062 3.0356L8.42735 2.44108L8.93318 2.07377H8.30805L8.11502 1.47916Z" fill="#F0F0F0"/>
<path d="M10.757 1.47916L10.5638 2.07377H9.9387L10.4444 2.44108L10.2512 3.0356L10.757 2.66829L11.2626 3.0356L11.0693 2.44108L11.5751 2.07377H10.95L10.757 1.47916Z" fill="#F0F0F0"/>
</svg>
