<svg width="35" height="36" viewBox="0 0 35 36" fill="none" xmlns="http://www.w3.org/2000/svg">
<g id="Youtube">
<path id="Background" d="M34.4485 18.2338C34.4485 14.8879 33.456 11.6172 31.5967 8.83533C29.7374 6.05341 27.0947 3.88505 24.0029 2.6051C20.9111 1.32515 17.5092 0.991222 14.2273 1.64477C10.9455 2.29833 7.93123 3.91039 5.56581 6.2771C3.20038 8.64381 1.59006 11.6588 0.938545 14.9407C0.28703 18.2226 0.623592 21.6237 1.90565 24.7143C3.1877 27.805 5.35767 30.446 8.14106 32.3033C10.9244 34.1607 14.1962 35.151 17.5425 35.1488C19.7635 35.1488 21.9628 34.7112 24.0146 33.861C26.0665 33.0108 27.9306 31.7646 29.5006 30.1938C31.0707 28.6229 32.3157 26.7586 33.1647 24.7064C34.0137 22.6542 34.4499 20.4547 34.4485 18.2338Z" stroke="white" stroke-miterlimit="10"/>
<path id="Icon" d="M21.8666 12.0144H13.1968C12.0845 12.0144 11.0178 12.4565 10.2313 13.243C9.44475 14.0294 9.00287 15.0959 9.00287 16.2081V20.3044C9.00287 21.4166 9.44475 22.4831 10.2313 23.2696C11.0178 24.056 12.0845 24.4976 13.1968 24.4976H21.8666C22.4168 24.4976 22.9617 24.3894 23.4699 24.1786C23.9782 23.9677 24.4398 23.6586 24.8284 23.269C25.2169 22.8795 25.5249 22.4169 25.7344 21.9082C25.944 21.3994 26.0512 20.8546 26.0497 20.3044V16.2081C26.0512 15.6579 25.944 15.1131 25.7344 14.6044C25.5249 14.0957 25.2169 13.6331 24.8284 13.2435C24.4398 12.854 23.9782 12.5449 23.4699 12.334C22.9617 12.1231 22.4168 12.0144 21.8666 12.0144ZM20.9996 18.2997L15.321 21.3664C15.2777 21.3913 15.2287 21.4042 15.1787 21.4039C15.1288 21.4037 15.0799 21.3901 15.0369 21.3648C14.9939 21.3394 14.9584 21.303 14.934 21.2595C14.9097 21.2159 14.8974 21.167 14.8983 21.1171V14.9837C14.8984 14.9354 14.911 14.8877 14.9348 14.8457C14.9586 14.8036 14.9928 14.7686 15.0342 14.7435C15.0755 14.7185 15.1226 14.7044 15.171 14.7028C15.2193 14.7012 15.2672 14.7122 15.3101 14.7345L20.9996 17.8229C21.0376 17.85 21.0687 17.8857 21.09 17.9272C21.1114 17.9686 21.1226 18.0144 21.1226 18.061C21.1226 18.1077 21.1114 18.154 21.09 18.1954C21.0687 18.2369 21.0376 18.2726 20.9996 18.2997Z" fill="white"/>
</g>
</svg>
